<svg width="400" height="400" xmlns="http://www.w3.org/2000/svg">
  <!-- QuetzalStake Logo - Feathered Serpent -->
  <defs>
    <linearGradient id="quetzalGradient" x1="0%" y1="0%" x2="100%" y2="100%">
      <stop offset="0%" style="stop-color:#228B22;stop-opacity:1" />
      <stop offset="50%" style="stop-color:#00CED1;stop-opacity:1" />
      <stop offset="100%" style="stop-color:#0066CC;stop-opacity:1" />
    </linearGradient>
    <linearGradient id="featherGradient" x1="0%" y1="0%" x2="100%" y2="100%">
      <stop offset="0%" style="stop-color:#FFD700;stop-opacity:1" />
      <stop offset="100%" style="stop-color:#FFA500;stop-opacity:1" />
    </linearGradient>
  </defs>
  
  <!-- Background -->
  <circle cx="200" cy="200" r="180" fill="url(#quetzalGradient)" opacity="0.1"/>
  
  <!-- Feathered Serpent (Quetzalcoatl) - stylized -->
  <g transform="translate(200, 200)">
    <!-- Serpent body (curved) -->
    <path d="M -100 0 Q -50 -30 0 -20 Q 50 -10 100 0" 
          fill="none" stroke="url(#quetzalGradient)" stroke-width="8" stroke-linecap="round"/>
    
    <!-- Feathers (stylized) -->
    <path d="M -80 -10 L -70 -40 L -60 -10" fill="url(#featherGradient)" opacity="0.8"/>
    <path d="M -40 -15 L -30 -45 L -20 -15" fill="url(#featherGradient)" opacity="0.8"/>
    <path d="M 0 -12 L 10 -42 L 20 -12" fill="url(#featherGradient)" opacity="0.8"/>
    <path d="M 40 -8 L 50 -38 L 60 -8" fill="url(#featherGradient)" opacity="0.8"/>
    <path d="M 80 -5 L 90 -35 L 100 -5" fill="url(#featherGradient)" opacity="0.8"/>
    
    <!-- Serpent head -->
    <circle cx="-100" cy="0" r="15" fill="url(#quetzalGradient)"/>
    <circle cx="-110" cy="-5" r="3" fill="#000"/>
    
    <!-- Staking symbol (coin/stack) -->
    <g transform="translate(0, 40)">
      <circle cx="0" cy="0" r="25" fill="url(#featherGradient)" stroke="#000" stroke-width="2"/>
      <circle cx="0" cy="-8" r="20" fill="url(#featherGradient)" opacity="0.7"/>
      <circle cx="0" cy="-16" r="15" fill="url(#featherGradient)" opacity="0.5"/>
    </g>
  </g>
  
  <!-- Text -->
  <text x="200" y="320" font-family="Arial, sans-serif" font-size="32" font-weight="bold" 
        text-anchor="middle" fill="#228B22">QuetzalStake</text>
  <text x="200" y="350" font-family="Arial, sans-serif" font-size="18" 
        text-anchor="middle" fill="#666">Liquid Staking</text>
</svg>
