<svg xmlns="http://www.w3.org/2000/svg" width="1400" height="980" viewBox="0 0 1400 980">
  <defs>
    <style>
      .bg { fill: #f8fafc; }
      .panel { fill: #ffffff; stroke: #e2e8f0; stroke-width: 1; }
      .muted { fill: #e2e8f0; }
      .text { font-family: Inter, Arial, sans-serif; fill: #0f172a; }
      .subtext { font-family: Inter, Arial, sans-serif; fill: #475569; }
      .label { font-size: 12px; font-family: Inter, Arial, sans-serif; fill: #64748b; }
      .title { font-size: 22px; font-weight: 700; font-family: Inter, Arial, sans-serif; fill: #0f172a; }
      .h2 { font-size: 16px; font-weight: 600; font-family: Inter, Arial, sans-serif; fill: #0f172a; }
      .chip { fill: #eff6ff; stroke: #bfdbfe; }
      .chip-text { font-size: 11px; font-family: Inter, Arial, sans-serif; fill: #1d4ed8; }
      .accent { fill: #dbeafe; }
      .accent-2 { fill: #ecfdf3; }
      .accent-3 { fill: #fef9c3; }
      .table-head { fill: #f1f5f9; }
      .table-row { fill: #ffffff; }
      .table-row-alt { fill: #f8fafc; }
    </style>
  </defs>

  <rect class="bg" x="0" y="0" width="1400" height="980" />

  <!-- Header -->
  <rect class="panel" x="60" y="32" width="1280" height="64" rx="12" />
  <text class="text" x="90" y="72" font-size="18" font-weight="700">Wallet Radar</text>
  <text class="label" x="230" y="72">Compare</text>
  <text class="label" x="310" y="72">Explore</text>
  <text class="label" x="380" y="72">Docs</text>
  <text class="label" x="440" y="72">Articles</text>
  <rect class="panel" x="1180" y="48" width="140" height="32" rx="8" />
  <text class="label" x="1216" y="69">Theme</text>

  <!-- Hero -->
  <rect class="panel" x="60" y="116" width="1280" height="230" rx="16" />
  <text class="title" x="92" y="170">Audit-grade wallet comparisons for developers</text>
  <text class="subtext" x="92" y="198" font-size="14">Evidence-led scoring, transparent sources, and side-by-side tooling.</text>
  <rect class="panel" x="92" y="222" width="210" height="38" rx="10" />
  <text class="subtext" x="110" y="246" font-size="13">Start Comparison</text>
  <rect class="panel" x="312" y="222" width="190" height="38" rx="10" />
  <text class="subtext" x="328" y="246" font-size="13">Read Methodology</text>

  <!-- Hero evidence card -->
  <rect class="panel" x="900" y="146" width="400" height="170" rx="14" />
  <text class="h2" x="922" y="176">Score Breakdown</text>
  <rect class="accent" x="922" y="190" width="356" height="10" rx="5" />
  <rect class="accent-2" x="922" y="210" width="310" height="10" rx="5" />
  <rect class="accent-3" x="922" y="230" width="270" height="10" rx="5" />
  <text class="label" x="922" y="258">Security / Dev UX / Activity / Coverage</text>
  <rect class="chip" x="922" y="270" width="80" height="22" rx="11" />
  <text class="chip-text" x="936" y="285">GitHub</text>
  <rect class="chip" x="1010" y="270" width="100" height="22" rx="11" />
  <text class="chip-text" x="1026" y="285">WalletBeat</text>
  <rect class="chip" x="1118" y="270" width="110" height="22" rx="11" />
  <text class="chip-text" x="1136" y="285">Chain Data</text>

  <!-- Trust strip -->
  <rect class="panel" x="60" y="360" width="1280" height="36" rx="10" />
  <text class="label" x="92" y="383">No login. No tracking. No affiliates. Verified sources only.</text>

  <!-- Top picks -->
  <text class="h2" x="60" y="430">Top Picks + Evidence</text>
  <rect class="panel" x="60" y="446" width="410" height="130" rx="14" />
  <rect class="accent" x="80" y="466" width="60" height="18" rx="9" />
  <text class="label" x="150" y="480">Rabby Wallet</text>
  <rect class="muted" x="80" y="492" width="300" height="10" rx="5" />
  <rect class="muted" x="80" y="510" width="260" height="10" rx="5" />
  <rect class="chip" x="80" y="532" width="90" height="22" rx="11" />
  <text class="chip-text" x="94" y="547">6 releases</text>
  <rect class="chip" x="176" y="532" width="92" height="22" rx="11" />
  <text class="chip-text" x="194" y="547">Tx Sim</text>
  <rect class="chip" x="274" y="532" width="90" height="22" rx="11" />
  <text class="chip-text" x="290" y="547">Open</text>

  <rect class="panel" x="495" y="446" width="410" height="130" rx="14" />
  <rect class="accent-2" x="515" y="466" width="60" height="18" rx="9" />
  <text class="label" x="585" y="480">Trezor Safe 5</text>
  <rect class="muted" x="515" y="492" width="300" height="10" rx="5" />
  <rect class="muted" x="515" y="510" width="260" height="10" rx="5" />
  <rect class="chip" x="515" y="532" width="90" height="22" rx="11" />
  <text class="chip-text" x="528" y="547">Secure</text>
  <rect class="chip" x="611" y="532" width="92" height="22" rx="11" />
  <text class="chip-text" x="628" y="547">Open</text>
  <rect class="chip" x="709" y="532" width="90" height="22" rx="11" />
  <text class="chip-text" x="724" y="547">Active</text>

  <rect class="panel" x="930" y="446" width="410" height="130" rx="14" />
  <rect class="accent-3" x="950" y="466" width="60" height="18" rx="9" />
  <text class="label" x="1020" y="480">Transak</text>
  <rect class="muted" x="950" y="492" width="300" height="10" rx="5" />
  <rect class="muted" x="950" y="510" width="260" height="10" rx="5" />
  <rect class="chip" x="950" y="532" width="90" height="22" rx="11" />
  <text class="chip-text" x="966" y="547">Dev UX</text>
  <rect class="chip" x="1046" y="532" width="92" height="22" rx="11" />
  <text class="chip-text" x="1060" y="547">160+</text>
  <rect class="chip" x="1144" y="532" width="90" height="22" rx="11" />
  <text class="chip-text" x="1159" y="547">API</text>

  <!-- Comparison preview -->
  <text class="h2" x="60" y="620">Comparison Preview</text>
  <rect class="panel" x="60" y="636" width="1280" height="200" rx="14" />
  <rect class="table-head" x="80" y="656" width="1240" height="28" rx="6" />
  <text class="label" x="95" y="676">Wallet</text>
  <text class="label" x="280" y="676">Score</text>
  <text class="label" x="380" y="676">Platforms</text>
  <text class="label" x="520" y="676">License</text>
  <text class="label" x="660" y="676">Activity</text>
  <rect class="table-row" x="80" y="690" width="1240" height="36" rx="6" />
  <rect class="table-row-alt" x="80" y="730" width="1240" height="36" rx="6" />
  <rect class="table-row" x="80" y="770" width="1240" height="36" rx="6" />
  <text class="label" x="95" y="713">Rabby Wallet</text>
  <text class="label" x="95" y="753">Trezor Safe 5</text>
  <text class="label" x="95" y="793">Transak</text>

  <!-- Docs + Sources -->
  <rect class="panel" x="60" y="852" width="640" height="90" rx="12" />
  <text class="h2" x="90" y="882">Guides and Methodology</text>
  <rect class="muted" x="90" y="894" width="420" height="10" rx="5" />
  <rect class="muted" x="90" y="912" width="340" height="10" rx="5" />

  <rect class="panel" x="700" y="852" width="640" height="90" rx="12" />
  <text class="h2" x="730" y="882">Sources Ledger</text>
  <rect class="muted" x="730" y="894" width="420" height="10" rx="5" />
  <rect class="muted" x="730" y="912" width="340" height="10" rx="5" />

  <text class="label" x="60" y="965">Variant A: Evidence Ledger - wireframe</text>
</svg>
